<svg xmlns="http://www.w3.org/2000/svg" viewBox="0 0 256 256" width="53" height="53">
    <g fill="none" stroke="#fb8500" stroke-linecap="round" stroke-linejoin="round"
        stroke-width="9">
        <path d="M24,224s40-32,104-32,104,32,104,32" />
        <path d="M176,72c-80,40-48,120-48,120" />
        <path d="M176,72s-17.2-8.58-36-8c-17.46.57-36.3,9.19-44,40" />
        <path d="M176,72S160,9.5,104,40.75" />
        <path d="M232,136c0-64-56-64-56-64" />
        <path d="M176,72s16-52.9,56-22.67" />
        <path d="M184,136s22.61-32-7.95-64" />
        <circle cx="52" cy="140" r="20" />
    </g>
</svg>